<svg width="94" height="32" viewBox="0 0 94 32" fill="none" class="jss657 jss1022">
  <path fill-rule="evenodd" clip-rule="evenodd" d="M0 4.00072L7.06682 0L21.2005 8.00144V24.0043L7.06682 32L8.72454 23.0633L14.1336 20.0036V12.0022L0 4.00073V4.00072ZM0 4.00073V27.9993L0.00573606 28.0051L7.06682 32V24.0043V9.8777L0 4.00073Z" fill="white"></path>
  <path d="M29.1942 9.98572H34.7516C36.0388 9.98572 37.1805 10.2292 38.1767 10.7162C39.1729 11.2032 39.9453 11.894 40.4937 12.7887C41.0422 13.6834 41.3164 14.731 41.3164 15.9315C41.3164 17.1319 41.0422 18.1795 40.4937 19.0742C39.9453 19.9689 39.1729 20.6597 38.1767 21.1467C37.1805 21.6337 36.0388 21.8772 34.7516 21.8772H29.1942V9.98572ZM34.6173 19.1931C35.6247 19.1931 36.4306 18.9043 37.035 18.3267C37.6507 17.7492 37.9585 16.9507 37.9585 15.9315C37.9585 14.9122 37.6507 14.1138 37.035 13.5362C36.4306 12.9586 35.6247 12.6698 34.6173 12.6698H32.5186V19.1931H34.6173Z" fill="white"></path>
  <path d="M52.5013 19.2781V21.8772H43.0655V9.98572H52.283V12.5849H46.3563V14.5894H51.5779V17.1036H46.3563V19.2781H52.5013Z" fill="white"></path>
  <path d="M61.6688 21.8772L59.2343 18.1908L56.8333 21.8772H53.0388L57.3202 15.8635L53.2235 9.98572H56.9677L59.3182 13.4173L61.6352 9.98572H65.2282L61.1315 15.7276L65.4969 21.8772H61.6688Z" fill="white"></path>
  <path d="M70.7994 17.5623L69.557 18.9043V21.8772H66.2662V9.98572H69.557V14.9292L74.107 9.98572H77.7672L72.9653 15.2519L78.019 21.8772H74.1574L70.7994 17.5623Z" fill="white"></path>
  <path d="M78.8913 9.98572H82.2157V21.8772H78.8913V9.98572Z" fill="white"></path>
  <path d="M87.0825 12.6528H83.4727V9.98572H93.9999V12.6528H90.4069V21.8772H87.0825V12.6528Z" fill="white"></path>
  <path d="M66.4297 30V24.3125H68.4727C69.2044 24.3125 69.7604 24.4466 70.1406 24.7148C70.5234 24.9831 70.7148 25.3724 70.7148 25.8828C70.7148 26.1771 70.6471 26.4284 70.5117 26.6367C70.3763 26.8451 70.1771 26.9987 69.9141 27.0977C70.2109 27.1758 70.4388 27.3216 70.5977 27.5352C70.7565 27.7487 70.8359 28.0091 70.8359 28.3164C70.8359 28.8737 70.6589 29.293 70.3047 29.5742C69.9531 29.8529 69.431 29.9948 68.7383 30H66.4297ZM67.8008 27.582V28.9453H68.6992C68.9466 28.9453 69.1367 28.8893 69.2695 28.7773C69.4023 28.6628 69.4688 28.5026 69.4688 28.2969C69.4688 27.8229 69.2331 27.5846 68.7617 27.582H67.8008ZM67.8008 26.6836H68.5156C68.8151 26.681 69.0286 26.6263 69.1562 26.5195C69.2839 26.4128 69.3477 26.2552 69.3477 26.0469C69.3477 25.8073 69.2786 25.6354 69.1406 25.5312C69.0026 25.4245 68.7799 25.3711 68.4727 25.3711H67.8008V26.6836ZM77.6811 27.5898H75.5248V28.9453H78.0717V30H74.1537V24.3125H78.0795V25.3711H75.5248V26.5703H77.6811V27.5898ZM85.7333 25.3711H84.0262V30H82.6552V25.3711H80.9794V24.3125H85.7333V25.3711ZM91.637 28.9375H89.7581L89.43 30H87.9652L90.0511 24.3125H91.3402L93.4417 30H91.9691L91.637 28.9375ZM90.0863 27.8789H91.3089L90.6956 25.9062L90.0863 27.8789Z" fill="#E0E0E0" fill-opacity="0.8"></path>
</svg>